Patient4_TMGait_0pt6_01_left_22_EMG.mot
version=1
nRows=37
nColumns=33
inDegrees=no
endheader
time	1LAddLong	2LGlutMax	3LGlutMed	4LIliopsoas	5LSemiMemb	6LBicFemLong	7LRecFem	8LVastMed	9LVastLat	10LGasMed	11LTibAnt	12lTibPost	13LPeroneusLong	14LSol	15LExtDigLong	16LFlexDigLong	17RAddLong	18RGlutMax	19RGlutMed	20RIliopsoas	21RSemiMemb	22RBicFemLong	23RRecFem	24RVastMed	25RVastLat	26RGasMed	27RTibAnt	28RTibPost	29RPeroneusLong	30RSol	31RExtDigLong	32RFlexDigLong
27.63	0.001526	0.072632	0.10468	0.011902	-0.001068	0.2092	-0.007477	0.003357	-0.11231	-0.64484	0.015411	-0.92209	0.095978	-0.30258	-0.025024	-0.011292	-0.15656	-0.014496	-0.30685	-0.14786	0.30731	0.15366	0.001373	0.22247	-0.18082	-0.008545	0.1294	-0.003662	0.038452	0.016174	0.001984	-0.01297
27.631	-0.001526	0.071564	0.1001	0.008392	-0.008087	0.22003	0.001373	0.007935	-0.10712	-0.56702	0.012054	-1.1618	0.043488	-0.057068	-0.030823	-0.00351	-0.2002	-0.076447	-0.089722	-0.12573	0.43411	0.087891	0.027466	0.67184	-0.002594	-0.002136	0.05661	-0.001068	0.13779	-0.032654	0	-0.019531
27.632	0.002289	0.070038	0.12116	0.015411	-0.029297	0.19302	0.001373	0.00473	-0.099487	-0.34576	0.022583	-1.2669	0.084534	0.014801	-0.040741	-0.006561	-0.1358	-0.099792	0.43793	-0.13184	0.62225	-0.2919	-0.10757	0.73105	0.28275	-0.000763	0.013275	-0.001526	0.022278	-0.072479	0.001984	-0.00946
27.633	0.000153	0.057678	0.16159	-0.00946	-0.03479	0.14999	-0.007629	0.00946	-0.085449	-0.24857	0.01709	-1.2885	0.023956	0.056763	-0.022583	-0.024872	-0.018616	-0.13321	0.63721	-0.07782	0.55313	-0.81573	-0.17014	0.56503	0.61371	-0.004425	0.00946	-0.00351	0.3952	-0.044556	0.006256	-0.015564
27.634	0.019836	0.012207	0.15839	0.003662	-0.024872	0.031128	-0.029144	0	-0.075073	-0.18524	0.012665	-1.2669	-0.11719	0.19486	0.010986	0.010223	0.035095	-0.17822	0.15915	0.10895	0.31006	-0.8313	-0.13062	0.41382	0.58868	-0.001831	-0.083618	-0.005646	0.13825	0.027008	0.000916	-0.013275
27.635	-0.035706	0.019226	0.18478	-0.001068	0.015259	-0.018616	-0.006866	0.006104	-0.081177	-0.20218	0.004425	-1.2611	0.15503	0.2829	0.036163	0.025787	0.026703	-0.21622	-0.041046	0.26703	0.22934	-0.5896	-0.14008	0.27512	0.21042	0.000916	-0.097198	0.001984	0.22324	-0.020447	0.002747	-0.01236
27.636	0.000153	-0.016327	0.1886	0.005188	0.027924	0.012817	0.018463	0.010834	-0.080261	-0.26764	0.014801	-1.2444	0.10635	0.22888	0.014801	0.014343	0.003052	-0.17746	-0.20004	0.19562	0.18112	-0.43839	-0.24323	0.24826	-0.25375	0.002136	0.20386	0.007477	0.085449	-0.069122	0.002594	-0.015106
27.637	0.009155	-0.059204	0.19836	0.007019	0.022125	0.010529	0.013428	0.002747	-0.078278	-0.23773	0.022736	-1.1804	-0.12466	0.14908	0.011749	0.008087	0.014343	-0.1738	0.014801	0.12741	0.11551	-0.38238	-0.28656	0.12192	-0.68665	0.00351	0.18143	0.003815	-0.060272	-0.103	-0.005188	-0.002747
27.638	-0.000153	0.009308	0.22415	0.017548	-0.015106	0.03952	-0.018311	0.000763	-0.056458	-0.031891	0.023499	-1.1243	-0.11398	0.088196	0.023956	0.002136	0.035706	-0.12817	0.080566	0.0354	0.10712	-0.37933	-0.33997	-0.06485	-0.43457	-0.001678	-0.099335	0.003815	0.056763	-0.071564	0.00061	-0.003204
27.639	0.005035	0.045013	0.25009	0.020752	-0.059204	0.067444	-0.056915	-0.005341	-0.02121	0.11429	0.027161	-1.0918	0.4248	0.070038	0.035858	0.006714	0.038452	0.001831	0.11749	-0.019836	-0.00061	-0.34668	-0.31876	-0.14526	0.091858	-0.000916	-0.14908	-0.001068	0.049133	-0.040741	0.000153	-0.007782
27.64	0.004578	0.00946	0.24582	0.026855	-0.059357	0.036926	-0.047302	-0.003357	-0.024414	0.41992	0.014954	-1.0384	-0.16968	0.004578	0.056	0.002136	0.081024	0.013275	0.14374	0.036469	-0.078125	-0.34775	-0.020599	-0.17822	0.11932	-0.005188	-0.18784	0.003815	-0.032501	0.006256	-0.000458	-0.003357
27.641	0.008392	-0.016937	0.15854	0.020294	-0.04837	-0.043335	-0.02121	-0.001221	-0.034637	0.54855	0.005951	-0.99716	-0.070343	-0.068359	0.011292	-0.029602	0.072327	-0.072327	0.022736	0.10391	0.02594	-0.25055	0.20706	-0.34775	0.019073	-0.003052	-0.067596	0.001221	-0.032349	0.014038	-0.00351	-0.00412
27.642	0.01297	-0.043488	0.15015	0.023499	-0.031281	-0.076294	-0.019379	-0.008545	-0.027161	0.52643	-0.026855	-0.95291	0.61066	-0.009308	0.046387	-0.010681	0.005646	-0.11231	-0.18173	0.068817	0.13534	-0.26108	0.041656	-0.22995	-0.10269	-0.014191	0.1268	-0.000305	-0.090179	-0.010376	0.008087	-0.009766
27.643	0.02243	-0.051117	0.25055	0.039978	0.005188	-0.10025	-0.021057	-0.006866	-0.026703	0.57327	0.008698	-0.88959	-0.25803	0.046387	0.078583	0.003662	-0.082092	-0.18723	-0.13809	0.033569	0.42633	-0.29724	-0.15259	-0.093231	-0.25436	-0.014954	0.14328	0.001373	-0.13443	-0.14282	-0.000305	-0.01358
27.644	0.028229	-0.053253	0.28595	0.015717	0.045166	-0.21713	-0.009003	-0.001831	-0.042267	0.38208	0.027313	-0.89722	-0.74661	0.009613	0.093536	0.006409	-0.029602	-0.18784	-0.29526	0.018921	0.36041	-0.31998	-0.15289	-0.046997	-0.41916	-0.011749	0.5542	-0.000916	-0.11017	-0.19653	-0.002136	-0.015869
27.645	0.021057	-0.016174	0.30472	0.006256	0.009308	-0.20676	0.011902	0.00412	-0.048828	0.22964	0.011444	-0.97076	-0.31494	-0.11398	0.027618	0.004272	0.017548	-0.053253	-0.13931	-0.033112	0.20981	-0.19089	-0.28885	0.039063	-0.62698	0.000763	1.1423	0.00412	-0.002289	-0.18326	0.003204	-0.01709
27.646	0.016632	-0.047455	0.29037	0.002747	-0.057526	-0.18265	0.017395	0.006561	-0.043335	0.046997	-0.019684	-1.0106	0.56885	-0.1709	0.015564	0.013123	0.013733	-0.12222	0.03067	-0.057678	0.24231	-0.13077	-0.42999	0.46951	-0.77286	0.010834	1.1243	0.004272	0.32577	-0.28503	-0.001678	-0.013428
27.647	0.006104	-0.033875	0.27039	-0.010834	-0.059204	-0.11932	0.023651	0.00824	-0.049286	-0.22949	-0.003204	-1.0231	0.01236	-0.11276	-0.007629	-0.8461	0.020905	-0.16098	0.23972	-0.05249	0.065613	-0.22553	-0.46845	0.57098	-0.48263	0.012665	0.59998	-0.000916	0.45105	-0.32638	0.003204	-0.003967
27.648	-0.003357	-0.02243	0.20737	0.006256	0.030518	-0.11078	0.029755	0.010223	-0.071411	0.027924	0.012817	-1.0562	-0.19745	-0.023041	-0.037231	0.64835	0.005341	-0.16907	0.68115	0.005493	0.27237	-0.14145	-0.62149	0.89645	0.16266	0.007629	0.19302	0.000763	0.038147	-0.32547	0.001373	0.000305
27.649	0.001984	-0.025787	0.1207	0.015411	0.071106	-0.053864	0.020905	0.008087	-0.047455	-0.18936	0.006714	-1.0995	-0.080566	0.00824	-0.10666	0.46921	0.046387	-0.26367	0.26535	0.062256	0.2536	-0.1889	-0.62759	0.81116	0.82214	0.011292	-0.76019	-0.000916	-0.19333	-0.23834	0	-0.007477
27.65	-0.010529	-0.011902	0.28625	0.015106	0.054321	-0.063782	0.028381	0.007324	-0.04364	-0.35629	0.003357	-1.1227	0.17868	0.083313	-0.088348	-0.16449	0.11093	-0.30685	-0.24094	-0.012665	0.19821	-0.29724	-0.3122	0.37582	0.93628	-0.006256	-0.58227	0.002441	0.001068	-0.019073	0.005188	-0.014648
27.651	0.007172	-0.032349	0.53131	0	0.046387	-0.1207	-0.000458	0.002289	-0.028839	-0.31174	0.014496	-1.1406	0.15793	0.21637	-0.063934	0.15152	0.15366	-0.33066	-0.55374	-0.083466	0.17319	-0.26459	-0.039063	-0.22583	0.57434	0.000916	-0.54672	0.00351	0.1442	0.021667	0.000916	0.002594
27.652	0.001068	-0.013275	0.47318	-0.012817	0.06012	-0.087433	-0.002441	0.005493	-0.018921	-0.33737	0.015869	-1.1758	0.085144	0.10788	-0.059967	-0.1442	0.11353	-0.25589	-0.8136	-0.018005	0.12543	-0.1181	-0.028381	-0.70267	0.054321	0.00351	-1.0236	0.001831	0.2269	0.056305	0.000458	-0.000305
27.653	0.005341	-0.027313	0.44693	-0.019226	0.058746	0.018311	-0.024872	0.005035	-0.018311	-0.34607	0.028076	-1.1578	-0.27405	0.00412	-0.048981	0.26459	0.007477	-0.13168	-0.46845	-0.01297	-0.044556	0.098877	0.029602	-0.67154	-0.20432	-0.004883	-0.64316	0.002289	0.19714	0.19974	0.001831	-0.000763
27.654	-0.002441	-0.028687	0.39337	-0.005798	0.01297	0.159	-0.013275	0.001221	-0.002136	-0.29907	0.016022	-1.1519	-0.001068	-0.035706	-0.025482	-0.099182	-0.018768	-0.033722	0.094452	-0.002136	-0.12863	0.1387	0.12924	-0.68314	-0.39124	-0.00824	-0.6395	0.002289	0.12436	0.29846	0.002594	0.001984
27.655	0.007477	-0.001831	0.38284	0.014801	-0.033875	0.14999	-0.045319	0.005341	0.012817	-0.16983	0.000916	-1.169	0.079498	-0.01297	0.003204	-0.033264	0.047302	0.065765	0.52841	-0.075531	-0.21912	0.090485	0.21255	-0.39795	-0.52185	-0.005341	-0.64011	0.000305	0.070648	0.29984	0.001526	-0.002441
27.656	0.016174	0.007935	0.35278	0.005646	-0.046387	0.00061	-0.067291	0.004883	0.023956	0.28122	-0.000763	-1.1934	0.12726	0.14755	0.028381	-0.3154	0.11093	0.20416	0.83298	-0.085449	-0.03952	0.088959	-0.054626	-0.3894	-0.048828	-0.007019	-0.38208	-0.000305	-0.059357	0.29862	-0.004272	-0.008392
27.657	0.018463	-0.038605	0.41992	0.020142	-0.012207	-0.11383	-0.051727	-0.000458	0.029144	-0.039673	0.018768	-1.1967	-0.26413	0.19424	0.10315	0.081482	0.1152	0.1358	0.38788	-0.022278	0.23499	0.04837	-0.15335	-0.48752	0.43045	0.00473	0.001984	0.002747	-0.057678	0.24796	-0.004578	0.000458
27.658	0.022888	-0.052338	0.34332	-0.007019	0.04837	-0.14297	-0.057983	0.004272	0.016632	-0.11444	0.00351	-1.1644	-0.15884	0.17609	0.083008	0.093842	0.032501	0.26657	0.14145	0.025024	0.30731	0.10803	-0.11307	-0.28992	0.50812	-0.000305	-0.002747	0	-0.05127	0.21393	-0.00061	0.004883
27.659	0.008698	-0.03479	0.3035	-0.010681	0.028687	-0.045319	-0.034943	0.003662	0.001831	0.24658	-0.007172	-1.1119	0.19806	-0.033264	0.073547	-0.1413	0.001221	0.26566	0.021057	0.082397	0.1532	0.14847	-0.14847	-0.09903	0.23041	0.002594	-0.075378	0.002441	0.014038	0.16632	-0.00061	0.000458
27.66	0.000916	-0.001221	0.35736	-0.006561	0.002441	0.020294	-0.02655	0.005798	0.005798	0.46951	-0.005341	-1.0388	-0.13382	-0.28809	0.085602	0.059662	0.015564	0.30579	-0.2388	0.037079	-0.039978	0.026245	-0.12009	-0.040131	-0.099335	-0.000305	-0.1944	0.007477	0.042572	0.087128	-0.003204	-0.013275
27.661	0.002136	0.03952	0.28931	0.004883	0.006714	0.060272	-0.036011	0.007477	0.01297	0.57114	0.001526	-0.98023	-0.14999	-0.26215	0.056458	0.069733	-0.068207	0.29404	-0.23148	-0.009918	-0.1709	-0.081482	-0.18341	0.41412	-0.3183	-0.007324	-0.36575	0.001068	0.028839	0.031891	-0.001831	-0.015564
27.662	-0.005798	0.055847	0.38162	0.005646	0.012817	0.054169	-0.034943	0.008545	0.001526	0.58701	0.005646	-0.88852	-0.15289	-0.010681	0.002289	-0.097961	-0.07309	0.25024	-0.18829	-0.012665	-0.35004	-0.17853	-0.21072	0.55161	-0.37903	-0.00061	-0.21759	0.004578	0.013275	-0.012207	0.001831	-0.01709
27.663	-0.006104	0.057983	0.42297	-0.001068	-0.00885	0.04776	-0.023651	0.000305	-0.009308	0.46326	0.011139	-0.79529	-0.078888	-0.18066	-0.027161	-0.43915	-0.053406	0.068817	0.23743	-0.025635	-0.27115	-0.15884	-0.005341	0.46097	-0.45761	-0.001068	-0.056305	0.005951	0.003357	0.043945	-0.000916	-0.01297
27.664	0.014191	0.068817	0.27481	0.02182	-0.040741	-0.024567	-0.030365	0.001678	-0.009613	-0.32928	0.018311	-0.67017	-0.041809	-0.33783	-0.030975	0.30792	-0.074158	0.029297	0.27512	-0.027618	-0.069427	-0.073853	0.063629	0.37033	-0.4277	0.000305	-0.030518	0.000458	-0.062561	0.069733	0.007629	-0.016174
27.665	0.025635	0.081024	0.4361	0.016785	-0.031433	-0.02655	-0.031128	-0.002289	-0.005188	-0.9436	0.029449	-0.6189	-0.12146	-0.2507	-0.021515	0.10925	-0.065613	-0.11643	-0.084991	0.018921	-0.019073	-0.12619	0.16769	0.007477	-0.1886	-0.008392	0.045319	0.00061	-0.053711	0.056763	0.002594	-0.021667
27.666	0.018005	0.088959	0.39322	0.019836	0.008087	0.087128	-0.029907	0.001373	-0.039063	-1.1264	0.025482	-0.55832	-0.003052	-0.36285	-0.008698	-0.29404	-0.077362	-0.40009	0.13473	0.017548	-0.079803	-0.050201	0.24582	-0.097809	-0.10941	-0.011292	0.12116	0.003052	-0.097961	0.070343	0.002899	-0.021667
